# Tiled2Unity generated file. Do not modify by hand.
# Wavefront file for 'Town_mesh_0008.obj'

# Vertices (Count = 80)
v -544 -256 0
v -576 -256 0
v -576 -224 0
v -544 -224 0
v -576 -256 0
v -608 -256 0
v -608 -224 0
v -576 -224 0
v -544 -288 0
v -576 -288 0
v -576 -256 0
v -544 -256 0
v -576 -288 0
v -608 -288 0
v -608 -256 0
v -576 -256 0
v -672 -608 0
v -704 -608 0
v -704 -576 0
v -672 -576 0
v -704 -608 0
v -736 -608 0
v -736 -576 0
v -704 -576 0
v -448 -640 0
v -480 -640 0
v -480 -608 0
v -448 -608 0
v -480 -640 0
v -512 -640 0
v -512 -608 0
v -480 -608 0
v -672 -640 0
v -704 -640 0
v -704 -608 0
v -672 -608 0
v -704 -640 0
v -736 -640 0
v -736 -608 0
v -704 -608 0
v -448 -672 0
v -480 -672 0
v -480 -640 0
v -448 -640 0
v -480 -672 0
v -512 -672 0
v -512 -640 0
v -480 -640 0
v -864 -800 0
v -896 -800 0
v -896 -768 0
v -864 -768 0
v -896 -800 0
v -928 -800 0
v -928 -768 0
v -896 -768 0
v -864 -832 0
v -896 -832 0
v -896 -800 0
v -864 -800 0
v -896 -832 0
v -928 -832 0
v -928 -800 0
v -896 -800 0
v -544 -896 0
v -576 -896 0
v -576 -864 0
v -544 -864 0
v -576 -896 0
v -608 -896 0
v -608 -864 0
v -576 -864 0
v -544 -928 0
v -576 -928 0
v -576 -896 0
v -544 -896 0
v -576 -928 0
v -608 -928 0
v -608 -896 0
v -576 -896 0

# Texture cooridinates (Count = 45)
vt 0.6181818 0.09090906
vt 0.6363636 0.09090906
vt 0.6363636 0.1363636
vt 0.6181818 0.1363636
vt 0.6545454 0.09090906
vt 0.6545454 0.1363636
vt 0.6181818 0.04545456
vt 0.6363636 0.04545456
vt 0.6545454 0.04545456
vt 0.5090909 0.2272727
vt 0.5272727 0.2272727
vt 0.5272727 0.2727273
vt 0.5090909 0.2727273
vt 0.5454546 0.2272727
vt 0.5454546 0.2727273
vt 0.4909091 0.2272727
vt 0.4727273 0.2272727
vt 0.4727273 0.2727273
vt 0.4909091 0.2727273
vt 0.4545455 0.2272727
vt 0.4545455 0.2727273
vt 0.5090909 0.1818182
vt 0.5272727 0.1818182
vt 0.5454546 0.1818182
vt 0.4909091 0.1818182
vt 0.4727273 0.1818182
vt 0.4545455 0.1818182
vt 0.6181818 0.2272727
vt 0.6363636 0.2272727
vt 0.6363636 0.2727273
vt 0.6181818 0.2727273
vt 0.6545454 0.2272727
vt 0.6545454 0.2727273
vt 0.6181818 0.1818182
vt 0.6363636 0.1818182
vt 0.6545454 0.1818182
vt 0.7272727 0.09090906
vt 0.7454545 0.09090906
vt 0.7454545 0.1363636
vt 0.7272727 0.1363636
vt 0.7636364 0.09090906
vt 0.7636364 0.1363636
vt 0.7272727 0.04545456
vt 0.7454545 0.04545456
vt 0.7636364 0.04545456

# Normal
vn 0 0 -1

# Mesh description
g Town_mesh_0008

# Faces
f 1/1/1 2/2/1 3/3/1 4/4/1
f 5/2/1 6/5/1 7/6/1 8/3/1
f 9/7/1 10/8/1 11/2/1 12/1/1
f 13/8/1 14/9/1 15/5/1 16/2/1
f 17/10/1 18/11/1 19/12/1 20/13/1
f 21/11/1 22/14/1 23/15/1 24/12/1
f 25/16/1 26/17/1 27/18/1 28/19/1
f 29/17/1 30/20/1 31/21/1 32/18/1
f 33/22/1 34/23/1 35/11/1 36/10/1
f 37/23/1 38/24/1 39/14/1 40/11/1
f 41/25/1 42/26/1 43/17/1 44/16/1
f 45/26/1 46/27/1 47/20/1 48/17/1
f 49/28/1 50/29/1 51/30/1 52/31/1
f 53/29/1 54/32/1 55/33/1 56/30/1
f 57/34/1 58/35/1 59/29/1 60/28/1
f 61/35/1 62/36/1 63/32/1 64/29/1
f 65/37/1 66/38/1 67/39/1 68/40/1
f 69/38/1 70/41/1 71/42/1 72/39/1
f 73/43/1 74/44/1 75/38/1 76/37/1
f 77/44/1 78/45/1 79/41/1 80/38/1

