# Tiled2Unity generated file. Do not modify by hand.
# Wavefront file for 'Town_mesh_0002.obj'

# Vertices (Count = 816)
v -512 -288 0
v -544 -288 0
v -544 -256 0
v -512 -256 0
v -544 -288 0
v -576 -288 0
v -576 -256 0
v -544 -256 0
v -512 -320 0
v -544 -320 0
v -544 -288 0
v -512 -288 0
v -544 -320 0
v -576 -320 0
v -576 -288 0
v -544 -288 0
v -512 -352 0
v -544 -352 0
v -544 -320 0
v -512 -320 0
v -544 -352 0
v -576 -352 0
v -576 -320 0
v -544 -320 0
v -512 -384 0
v -544 -384 0
v -544 -352 0
v -512 -352 0
v -544 -384 0
v -576 -384 0
v -576 -352 0
v -544 -352 0
v -512 -416 0
v -544 -416 0
v -544 -384 0
v -512 -384 0
v -544 -416 0
v -576 -416 0
v -576 -384 0
v -544 -384 0
v -512 -448 0
v -544 -448 0
v -544 -416 0
v -512 -416 0
v -544 -448 0
v -576 -448 0
v -576 -416 0
v -544 -416 0
v -512 -480 0
v -544 -480 0
v -544 -448 0
v -512 -448 0
v -544 -480 0
v -576 -480 0
v -576 -448 0
v -544 -448 0
v -512 -512 0
v -544 -512 0
v -544 -480 0
v -512 -480 0
v -544 -512 0
v -576 -512 0
v -576 -480 0
v -544 -480 0
v -512 -544 0
v -544 -544 0
v -544 -512 0
v -512 -512 0
v -544 -544 0
v -576 -544 0
v -576 -512 0
v -544 -512 0
v -512 -576 0
v -544 -576 0
v -544 -544 0
v -512 -544 0
v -544 -576 0
v -576 -576 0
v -576 -544 0
v -544 -544 0
v -512 -608 0
v -544 -608 0
v -544 -576 0
v -512 -576 0
v -544 -608 0
v -576 -608 0
v -576 -576 0
v -544 -576 0
v -512 -640 0
v -544 -640 0
v -544 -608 0
v -512 -608 0
v -544 -640 0
v -576 -640 0
v -576 -608 0
v -544 -608 0
v -128 -672 0
v -160 -672 0
v -160 -640 0
v -128 -640 0
v -160 -672 0
v -192 -672 0
v -192 -640 0
v -160 -640 0
v -192 -672 0
v -224 -672 0
v -224 -640 0
v -192 -640 0
v -224 -672 0
v -256 -672 0
v -256 -640 0
v -224 -640 0
v -256 -672 0
v -288 -672 0
v -288 -640 0
v -256 -640 0
v -288 -672 0
v -320 -672 0
v -320 -640 0
v -288 -640 0
v -320 -672 0
v -352 -672 0
v -352 -640 0
v -320 -640 0
v -352 -672 0
v -384 -672 0
v -384 -640 0
v -352 -640 0
v -384 -672 0
v -416 -672 0
v -416 -640 0
v -384 -640 0
v -416 -672 0
v -448 -672 0
v -448 -640 0
v -416 -640 0
v -448 -672 0
v -480 -672 0
v -480 -640 0
v -448 -640 0
v -480 -672 0
v -512 -672 0
v -512 -640 0
v -480 -640 0
v -512 -672 0
v -544 -672 0
v -544 -640 0
v -512 -640 0
v -544 -672 0
v -576 -672 0
v -576 -640 0
v -544 -640 0
v -576 -672 0
v -608 -672 0
v -608 -640 0
v -576 -640 0
v -608 -672 0
v -640 -672 0
v -640 -640 0
v -608 -640 0
v -640 -672 0
v -672 -672 0
v -672 -640 0
v -640 -640 0
v -672 -672 0
v -704 -672 0
v -704 -640 0
v -672 -640 0
v -704 -672 0
v -736 -672 0
v -736 -640 0
v -704 -640 0
v -736 -672 0
v -768 -672 0
v -768 -640 0
v -736 -640 0
v -768 -672 0
v -800 -672 0
v -800 -640 0
v -768 -640 0
v -800 -672 0
v -832 -672 0
v -832 -640 0
v -800 -640 0
v -832 -672 0
v -864 -672 0
v -864 -640 0
v -832 -640 0
v -864 -672 0
v -896 -672 0
v -896 -640 0
v -864 -640 0
v -896 -672 0
v -928 -672 0
v -928 -640 0
v -896 -640 0
v -928 -672 0
v -960 -672 0
v -960 -640 0
v -928 -640 0
v -128 -704 0
v -160 -704 0
v -160 -672 0
v -128 -672 0
v -160 -704 0
v -192 -704 0
v -192 -672 0
v -160 -672 0
v -192 -704 0
v -224 -704 0
v -224 -672 0
v -192 -672 0
v -224 -704 0
v -256 -704 0
v -256 -672 0
v -224 -672 0
v -256 -704 0
v -288 -704 0
v -288 -672 0
v -256 -672 0
v -288 -704 0
v -320 -704 0
v -320 -672 0
v -288 -672 0
v -320 -704 0
v -352 -704 0
v -352 -672 0
v -320 -672 0
v -352 -704 0
v -384 -704 0
v -384 -672 0
v -352 -672 0
v -384 -704 0
v -416 -704 0
v -416 -672 0
v -384 -672 0
v -416 -704 0
v -448 -704 0
v -448 -672 0
v -416 -672 0
v -448 -704 0
v -480 -704 0
v -480 -672 0
v -448 -672 0
v -480 -704 0
v -512 -704 0
v -512 -672 0
v -480 -672 0
v -512 -704 0
v -544 -704 0
v -544 -672 0
v -512 -672 0
v -544 -704 0
v -576 -704 0
v -576 -672 0
v -544 -672 0
v -576 -704 0
v -608 -704 0
v -608 -672 0
v -576 -672 0
v -608 -704 0
v -640 -704 0
v -640 -672 0
v -608 -672 0
v -640 -704 0
v -672 -704 0
v -672 -672 0
v -640 -672 0
v -672 -704 0
v -704 -704 0
v -704 -672 0
v -672 -672 0
v -704 -704 0
v -736 -704 0
v -736 -672 0
v -704 -672 0
v -736 -704 0
v -768 -704 0
v -768 -672 0
v -736 -672 0
v -768 -704 0
v -800 -704 0
v -800 -672 0
v -768 -672 0
v -800 -704 0
v -832 -704 0
v -832 -672 0
v -800 -672 0
v -832 -704 0
v -864 -704 0
v -864 -672 0
v -832 -672 0
v -864 -704 0
v -896 -704 0
v -896 -672 0
v -864 -672 0
v -896 -704 0
v -928 -704 0
v -928 -672 0
v -896 -672 0
v -928 -704 0
v -960 -704 0
v -960 -672 0
v -928 -672 0
v -128 -736 0
v -160 -736 0
v -160 -704 0
v -128 -704 0
v -160 -736 0
v -192 -736 0
v -192 -704 0
v -160 -704 0
v -512 -736 0
v -544 -736 0
v -544 -704 0
v -512 -704 0
v -544 -736 0
v -576 -736 0
v -576 -704 0
v -544 -704 0
v -896 -736 0
v -928 -736 0
v -928 -704 0
v -896 -704 0
v -928 -736 0
v -960 -736 0
v -960 -704 0
v -928 -704 0
v -128 -768 0
v -160 -768 0
v -160 -736 0
v -128 -736 0
v -160 -768 0
v -192 -768 0
v -192 -736 0
v -160 -736 0
v -512 -768 0
v -544 -768 0
v -544 -736 0
v -512 -736 0
v -544 -768 0
v -576 -768 0
v -576 -736 0
v -544 -736 0
v -896 -768 0
v -928 -768 0
v -928 -736 0
v -896 -736 0
v -928 -768 0
v -960 -768 0
v -960 -736 0
v -928 -736 0
v -128 -800 0
v -160 -800 0
v -160 -768 0
v -128 -768 0
v -160 -800 0
v -192 -800 0
v -192 -768 0
v -160 -768 0
v -192 -800 0
v -224 -800 0
v -224 -768 0
v -192 -768 0
v -224 -800 0
v -256 -800 0
v -256 -768 0
v -224 -768 0
v -256 -800 0
v -288 -800 0
v -288 -768 0
v -256 -768 0
v -288 -800 0
v -320 -800 0
v -320 -768 0
v -288 -768 0
v -320 -800 0
v -352 -800 0
v -352 -768 0
v -320 -768 0
v -352 -800 0
v -384 -800 0
v -384 -768 0
v -352 -768 0
v -384 -800 0
v -416 -800 0
v -416 -768 0
v -384 -768 0
v -416 -800 0
v -448 -800 0
v -448 -768 0
v -416 -768 0
v -512 -800 0
v -544 -800 0
v -544 -768 0
v -512 -768 0
v -544 -800 0
v -576 -800 0
v -576 -768 0
v -544 -768 0
v -640 -800 0
v -672 -800 0
v -672 -768 0
v -640 -768 0
v -672 -800 0
v -704 -800 0
v -704 -768 0
v -672 -768 0
v -704 -800 0
v -736 -800 0
v -736 -768 0
v -704 -768 0
v -736 -800 0
v -768 -800 0
v -768 -768 0
v -736 -768 0
v -768 -800 0
v -800 -800 0
v -800 -768 0
v -768 -768 0
v -800 -800 0
v -832 -800 0
v -832 -768 0
v -800 -768 0
v -832 -800 0
v -864 -800 0
v -864 -768 0
v -832 -768 0
v -864 -800 0
v -896 -800 0
v -896 -768 0
v -864 -768 0
v -896 -800 0
v -928 -800 0
v -928 -768 0
v -896 -768 0
v -928 -800 0
v -960 -800 0
v -960 -768 0
v -928 -768 0
v -128 -832 0
v -160 -832 0
v -160 -800 0
v -128 -800 0
v -160 -832 0
v -192 -832 0
v -192 -800 0
v -160 -800 0
v -192 -832 0
v -224 -832 0
v -224 -800 0
v -192 -800 0
v -224 -832 0
v -256 -832 0
v -256 -800 0
v -224 -800 0
v -256 -832 0
v -288 -832 0
v -288 -800 0
v -256 -800 0
v -288 -832 0
v -320 -832 0
v -320 -800 0
v -288 -800 0
v -320 -832 0
v -352 -832 0
v -352 -800 0
v -320 -800 0
v -352 -832 0
v -384 -832 0
v -384 -800 0
v -352 -800 0
v -384 -832 0
v -416 -832 0
v -416 -800 0
v -384 -800 0
v -416 -832 0
v -448 -832 0
v -448 -800 0
v -416 -800 0
v -512 -832 0
v -544 -832 0
v -544 -800 0
v -512 -800 0
v -544 -832 0
v -576 -832 0
v -576 -800 0
v -544 -800 0
v -640 -832 0
v -672 -832 0
v -672 -800 0
v -640 -800 0
v -672 -832 0
v -704 -832 0
v -704 -800 0
v -672 -800 0
v -704 -832 0
v -736 -832 0
v -736 -800 0
v -704 -800 0
v -736 -832 0
v -768 -832 0
v -768 -800 0
v -736 -800 0
v -768 -832 0
v -800 -832 0
v -800 -800 0
v -768 -800 0
v -800 -832 0
v -832 -832 0
v -832 -800 0
v -800 -800 0
v -832 -832 0
v -864 -832 0
v -864 -800 0
v -832 -800 0
v -864 -832 0
v -896 -832 0
v -896 -800 0
v -864 -800 0
v -896 -832 0
v -928 -832 0
v -928 -800 0
v -896 -800 0
v -928 -832 0
v -960 -832 0
v -960 -800 0
v -928 -800 0
v -128 -864 0
v -160 -864 0
v -160 -832 0
v -128 -832 0
v -160 -864 0
v -192 -864 0
v -192 -832 0
v -160 -832 0
v -384 -864 0
v -416 -864 0
v -416 -832 0
v -384 -832 0
v -416 -864 0
v -448 -864 0
v -448 -832 0
v -416 -832 0
v -512 -864 0
v -544 -864 0
v -544 -832 0
v -512 -832 0
v -544 -864 0
v -576 -864 0
v -576 -832 0
v -544 -832 0
v -640 -864 0
v -672 -864 0
v -672 -832 0
v -640 -832 0
v -672 -864 0
v -704 -864 0
v -704 -832 0
v -672 -832 0
v -896 -864 0
v -928 -864 0
v -928 -832 0
v -896 -832 0
v -928 -864 0
v -960 -864 0
v -960 -832 0
v -928 -832 0
v -128 -896 0
v -160 -896 0
v -160 -864 0
v -128 -864 0
v -160 -896 0
v -192 -896 0
v -192 -864 0
v -160 -864 0
v -384 -896 0
v -416 -896 0
v -416 -864 0
v -384 -864 0
v -416 -896 0
v -448 -896 0
v -448 -864 0
v -416 -864 0
v -512 -896 0
v -544 -896 0
v -544 -864 0
v -512 -864 0
v -544 -896 0
v -576 -896 0
v -576 -864 0
v -544 -864 0
v -640 -896 0
v -672 -896 0
v -672 -864 0
v -640 -864 0
v -672 -896 0
v -704 -896 0
v -704 -864 0
v -672 -864 0
v -896 -896 0
v -928 -896 0
v -928 -864 0
v -896 -864 0
v -928 -896 0
v -960 -896 0
v -960 -864 0
v -928 -864 0
v -128 -928 0
v -160 -928 0
v -160 -896 0
v -128 -896 0
v -160 -928 0
v -192 -928 0
v -192 -896 0
v -160 -896 0
v -192 -928 0
v -224 -928 0
v -224 -896 0
v -192 -896 0
v -224 -928 0
v -256 -928 0
v -256 -896 0
v -224 -896 0
v -256 -928 0
v -288 -928 0
v -288 -896 0
v -256 -896 0
v -288 -928 0
v -320 -928 0
v -320 -896 0
v -288 -896 0
v -320 -928 0
v -352 -928 0
v -352 -896 0
v -320 -896 0
v -352 -928 0
v -384 -928 0
v -384 -896 0
v -352 -896 0
v -384 -928 0
v -416 -928 0
v -416 -896 0
v -384 -896 0
v -416 -928 0
v -448 -928 0
v -448 -896 0
v -416 -896 0
v -448 -928 0
v -480 -928 0
v -480 -896 0
v -448 -896 0
v -480 -928 0
v -512 -928 0
v -512 -896 0
v -480 -896 0
v -512 -928 0
v -544 -928 0
v -544 -896 0
v -512 -896 0
v -544 -928 0
v -576 -928 0
v -576 -896 0
v -544 -896 0
v -576 -928 0
v -608 -928 0
v -608 -896 0
v -576 -896 0
v -608 -928 0
v -640 -928 0
v -640 -896 0
v -608 -896 0
v -640 -928 0
v -672 -928 0
v -672 -896 0
v -640 -896 0
v -672 -928 0
v -704 -928 0
v -704 -896 0
v -672 -896 0
v -704 -928 0
v -736 -928 0
v -736 -896 0
v -704 -896 0
v -736 -928 0
v -768 -928 0
v -768 -896 0
v -736 -896 0
v -768 -928 0
v -800 -928 0
v -800 -896 0
v -768 -896 0
v -800 -928 0
v -832 -928 0
v -832 -896 0
v -800 -896 0
v -832 -928 0
v -864 -928 0
v -864 -896 0
v -832 -896 0
v -864 -928 0
v -896 -928 0
v -896 -896 0
v -864 -896 0
v -896 -928 0
v -928 -928 0
v -928 -896 0
v -896 -896 0
v -928 -928 0
v -960 -928 0
v -960 -896 0
v -928 -896 0
v -128 -960 0
v -160 -960 0
v -160 -928 0
v -128 -928 0
v -160 -960 0
v -192 -960 0
v -192 -928 0
v -160 -928 0
v -192 -960 0
v -224 -960 0
v -224 -928 0
v -192 -928 0
v -224 -960 0
v -256 -960 0
v -256 -928 0
v -224 -928 0
v -256 -960 0
v -288 -960 0
v -288 -928 0
v -256 -928 0
v -288 -960 0
v -320 -960 0
v -320 -928 0
v -288 -928 0
v -320 -960 0
v -352 -960 0
v -352 -928 0
v -320 -928 0
v -352 -960 0
v -384 -960 0
v -384 -928 0
v -352 -928 0
v -384 -960 0
v -416 -960 0
v -416 -928 0
v -384 -928 0
v -416 -960 0
v -448 -960 0
v -448 -928 0
v -416 -928 0
v -448 -960 0
v -480 -960 0
v -480 -928 0
v -448 -928 0
v -480 -960 0
v -512 -960 0
v -512 -928 0
v -480 -928 0
v -512 -960 0
v -544 -960 0
v -544 -928 0
v -512 -928 0
v -544 -960 0
v -576 -960 0
v -576 -928 0
v -544 -928 0
v -576 -960 0
v -608 -960 0
v -608 -928 0
v -576 -928 0
v -608 -960 0
v -640 -960 0
v -640 -928 0
v -608 -928 0
v -640 -960 0
v -672 -960 0
v -672 -928 0
v -640 -928 0
v -672 -960 0
v -704 -960 0
v -704 -928 0
v -672 -928 0
v -704 -960 0
v -736 -960 0
v -736 -928 0
v -704 -928 0
v -736 -960 0
v -768 -960 0
v -768 -928 0
v -736 -928 0
v -768 -960 0
v -800 -960 0
v -800 -928 0
v -768 -928 0
v -800 -960 0
v -832 -960 0
v -832 -928 0
v -800 -928 0
v -832 -960 0
v -864 -960 0
v -864 -928 0
v -832 -928 0
v -864 -960 0
v -896 -960 0
v -896 -928 0
v -864 -928 0
v -896 -960 0
v -928 -960 0
v -928 -928 0
v -896 -928 0
v -928 -960 0
v -960 -960 0
v -960 -928 0
v -928 -928 0

# Texture cooridinates (Count = 99)
vt 0.7272727 0.6363636
vt 0.7454545 0.6363636
vt 0.7454545 0.6818182
vt 0.7272727 0.6818182
vt 0.7636364 0.6363636
vt 0.7636364 0.6818182
vt 0.7272727 0.5909091
vt 0.7454545 0.5909091
vt 0.7636364 0.5909091
vt 0.5090909 0.9090909
vt 0.5272727 0.9090909
vt 0.5272727 0.9545454
vt 0.5090909 0.9545454
vt 0.5454546 0.9090909
vt 0.5454546 0.9545454
vt 0.5090909 0.8636364
vt 0.5272727 0.8636364
vt 0.5454546 0.8636364
vt 0.5090909 0.7727273
vt 0.5272727 0.7727273
vt 0.5272727 0.8181818
vt 0.5090909 0.8181818
vt 0.5454546 0.7727273
vt 0.5454546 0.8181818
vt 0.5636364 0.9090909
vt 0.5818182 0.9090909
vt 0.5818182 0.9545454
vt 0.5636364 0.9545454
vt 0.6 0.9090909
vt 0.6 0.9545454
vt 0.6181818 0.9090909
vt 0.6363636 0.9090909
vt 0.6363636 0.9545454
vt 0.6181818 0.9545454
vt 0.6545454 0.9090909
vt 0.6545454 0.9545454
vt 0.5636364 0.7727273
vt 0.5818182 0.7727273
vt 0.5818182 0.8181818
vt 0.5636364 0.8181818
vt 0.6 0.7727273
vt 0.6 0.8181818
vt 0.5090909 0.7272727
vt 0.5272727 0.7272727
vt 0.5454546 0.7272727
vt 0.5636364 0.8636364
vt 0.5818182 0.8636364
vt 0.6 0.8636364
vt 0.6181818 0.8636364
vt 0.6363636 0.8636364
vt 0.6545454 0.8636364
vt 0.5636364 0.7272727
vt 0.5818182 0.7272727
vt 0.6 0.7272727
vt 0.7272727 0.7727273
vt 0.7454545 0.7727273
vt 0.7454545 0.8181818
vt 0.7272727 0.8181818
vt 0.7636364 0.7727273
vt 0.7636364 0.8181818
vt 0.6727273 0.7727273
vt 0.6909091 0.7727273
vt 0.6909091 0.8181818
vt 0.6727273 0.8181818
vt 0.7090909 0.7727273
vt 0.7090909 0.8181818
vt 0.7272727 0.7272727
vt 0.7454545 0.7272727
vt 0.7636364 0.7272727
vt 0.6727273 0.7272727
vt 0.6909091 0.7272727
vt 0.7090909 0.7272727
vt 0.5090909 0.6363636
vt 0.5272727 0.6363636
vt 0.5272727 0.6818182
vt 0.5090909 0.6818182
vt 0.5454546 0.6363636
vt 0.5454546 0.6818182
vt 0.7272727 0.9090909
vt 0.7454545 0.9090909
vt 0.7454545 0.9545454
vt 0.7272727 0.9545454
vt 0.7636364 0.9090909
vt 0.7636364 0.9545454
vt 0.5636364 0.6363636
vt 0.5818182 0.6363636
vt 0.5818182 0.6818182
vt 0.5636364 0.6818182
vt 0.6 0.6363636
vt 0.6 0.6818182
vt 0.5090909 0.5909091
vt 0.5272727 0.5909091
vt 0.5454546 0.5909091
vt 0.7272727 0.8636364
vt 0.7454545 0.8636364
vt 0.7636364 0.8636364
vt 0.5636364 0.5909091
vt 0.5818182 0.5909091
vt 0.6 0.5909091

# Normal
vn 0 0 -1

# Mesh description
g Town_mesh_0002

# Faces
f 1/1/1 2/2/1 3/3/1 4/4/1
f 5/2/1 6/5/1 7/6/1 8/3/1
f 9/7/1 10/8/1 11/2/1 12/1/1
f 13/8/1 14/9/1 15/5/1 16/2/1
f 17/10/1 18/11/1 19/12/1 20/13/1
f 21/11/1 22/14/1 23/15/1 24/12/1
f 25/16/1 26/17/1 27/11/1 28/10/1
f 29/17/1 30/18/1 31/14/1 32/11/1
f 33/10/1 34/11/1 35/12/1 36/13/1
f 37/11/1 38/14/1 39/15/1 40/12/1
f 41/16/1 42/17/1 43/11/1 44/10/1
f 45/17/1 46/18/1 47/14/1 48/11/1
f 49/10/1 50/11/1 51/12/1 52/13/1
f 53/11/1 54/14/1 55/15/1 56/12/1
f 57/16/1 58/17/1 59/11/1 60/10/1
f 61/17/1 62/18/1 63/14/1 64/11/1
f 65/10/1 66/11/1 67/12/1 68/13/1
f 69/11/1 70/14/1 71/15/1 72/12/1
f 73/16/1 74/17/1 75/11/1 76/10/1
f 77/17/1 78/18/1 79/14/1 80/11/1
f 81/10/1 82/11/1 83/12/1 84/13/1
f 85/11/1 86/14/1 87/15/1 88/12/1
f 89/16/1 90/17/1 91/11/1 92/10/1
f 93/17/1 94/18/1 95/14/1 96/11/1
f 97/19/1 98/20/1 99/21/1 100/22/1
f 101/20/1 102/23/1 103/24/1 104/21/1
f 105/25/1 106/26/1 107/27/1 108/28/1
f 109/26/1 110/29/1 111/30/1 112/27/1
f 113/25/1 114/26/1 115/27/1 116/28/1
f 117/26/1 118/29/1 119/30/1 120/27/1
f 121/25/1 122/26/1 123/27/1 124/28/1
f 125/26/1 126/29/1 127/30/1 128/27/1
f 129/25/1 130/26/1 131/27/1 132/28/1
f 133/26/1 134/29/1 135/30/1 136/27/1
f 137/25/1 138/26/1 139/27/1 140/28/1
f 141/26/1 142/29/1 143/30/1 144/27/1
f 145/31/1 146/32/1 147/33/1 148/34/1
f 149/32/1 150/35/1 151/36/1 152/33/1
f 153/25/1 154/26/1 155/27/1 156/28/1
f 157/26/1 158/29/1 159/30/1 160/27/1
f 161/25/1 162/26/1 163/27/1 164/28/1
f 165/26/1 166/29/1 167/30/1 168/27/1
f 169/25/1 170/26/1 171/27/1 172/28/1
f 173/26/1 174/29/1 175/30/1 176/27/1
f 177/25/1 178/26/1 179/27/1 180/28/1
f 181/26/1 182/29/1 183/30/1 184/27/1
f 185/25/1 186/26/1 187/27/1 188/28/1
f 189/26/1 190/29/1 191/30/1 192/27/1
f 193/37/1 194/38/1 195/39/1 196/40/1
f 197/38/1 198/41/1 199/42/1 200/39/1
f 201/43/1 202/44/1 203/20/1 204/19/1
f 205/44/1 206/45/1 207/23/1 208/20/1
f 209/46/1 210/47/1 211/26/1 212/25/1
f 213/47/1 214/48/1 215/29/1 216/26/1
f 217/46/1 218/47/1 219/26/1 220/25/1
f 221/47/1 222/48/1 223/29/1 224/26/1
f 225/46/1 226/47/1 227/26/1 228/25/1
f 229/47/1 230/48/1 231/29/1 232/26/1
f 233/46/1 234/47/1 235/26/1 236/25/1
f 237/47/1 238/48/1 239/29/1 240/26/1
f 241/46/1 242/47/1 243/26/1 244/25/1
f 245/47/1 246/48/1 247/29/1 248/26/1
f 249/49/1 250/50/1 251/32/1 252/31/1
f 253/50/1 254/51/1 255/35/1 256/32/1
f 257/46/1 258/47/1 259/26/1 260/25/1
f 261/47/1 262/48/1 263/29/1 264/26/1
f 265/46/1 266/47/1 267/26/1 268/25/1
f 269/47/1 270/48/1 271/29/1 272/26/1
f 273/46/1 274/47/1 275/26/1 276/25/1
f 277/47/1 278/48/1 279/29/1 280/26/1
f 281/46/1 282/47/1 283/26/1 284/25/1
f 285/47/1 286/48/1 287/29/1 288/26/1
f 289/46/1 290/47/1 291/26/1 292/25/1
f 293/47/1 294/48/1 295/29/1 296/26/1
f 297/52/1 298/53/1 299/38/1 300/37/1
f 301/53/1 302/54/1 303/41/1 304/38/1
f 305/10/1 306/11/1 307/12/1 308/13/1
f 309/11/1 310/14/1 311/15/1 312/12/1
f 313/10/1 314/11/1 315/12/1 316/13/1
f 317/11/1 318/14/1 319/15/1 320/12/1
f 321/10/1 322/11/1 323/12/1 324/13/1
f 325/11/1 326/14/1 327/15/1 328/12/1
f 329/16/1 330/17/1 331/11/1 332/10/1
f 333/17/1 334/18/1 335/14/1 336/11/1
f 337/16/1 338/17/1 339/11/1 340/10/1
f 341/17/1 342/18/1 343/14/1 344/11/1
f 345/16/1 346/17/1 347/11/1 348/10/1
f 349/17/1 350/18/1 351/14/1 352/11/1
f 353/55/1 354/56/1 355/57/1 356/58/1
f 357/56/1 358/59/1 359/60/1 360/57/1
f 361/25/1 362/26/1 363/27/1 364/28/1
f 365/26/1 366/29/1 367/30/1 368/27/1
f 369/25/1 370/26/1 371/27/1 372/28/1
f 373/26/1 374/29/1 375/30/1 376/27/1
f 377/25/1 378/26/1 379/27/1 380/28/1
f 381/26/1 382/29/1 383/30/1 384/27/1
f 385/37/1 386/38/1 387/39/1 388/40/1
f 389/38/1 390/41/1 391/42/1 392/39/1
f 393/10/1 394/11/1 395/12/1 396/13/1
f 397/11/1 398/14/1 399/15/1 400/12/1
f 401/19/1 402/20/1 403/21/1 404/22/1
f 405/20/1 406/23/1 407/24/1 408/21/1
f 409/25/1 410/26/1 411/27/1 412/28/1
f 413/26/1 414/29/1 415/30/1 416/27/1
f 417/25/1 418/26/1 419/27/1 420/28/1
f 421/26/1 422/29/1 423/30/1 424/27/1
f 425/25/1 426/26/1 427/27/1 428/28/1
f 429/26/1 430/29/1 431/30/1 432/27/1
f 433/61/1 434/62/1 435/63/1 436/64/1
f 437/62/1 438/65/1 439/66/1 440/63/1
f 441/67/1 442/68/1 443/56/1 444/55/1
f 445/68/1 446/69/1 447/59/1 448/56/1
f 449/46/1 450/47/1 451/26/1 452/25/1
f 453/47/1 454/48/1 455/29/1 456/26/1
f 457/46/1 458/47/1 459/26/1 460/25/1
f 461/47/1 462/48/1 463/29/1 464/26/1
f 465/46/1 466/47/1 467/26/1 468/25/1
f 469/47/1 470/48/1 471/29/1 472/26/1
f 473/52/1 474/53/1 475/38/1 476/37/1
f 477/53/1 478/54/1 479/41/1 480/38/1
f 481/16/1 482/17/1 483/11/1 484/10/1
f 485/17/1 486/18/1 487/14/1 488/11/1
f 489/43/1 490/44/1 491/20/1 492/19/1
f 493/44/1 494/45/1 495/23/1 496/20/1
f 497/46/1 498/47/1 499/26/1 500/25/1
f 501/47/1 502/48/1 503/29/1 504/26/1
f 505/46/1 506/47/1 507/26/1 508/25/1
f 509/47/1 510/48/1 511/29/1 512/26/1
f 513/46/1 514/47/1 515/26/1 516/25/1
f 517/47/1 518/48/1 519/29/1 520/26/1
f 521/70/1 522/71/1 523/62/1 524/61/1
f 525/71/1 526/72/1 527/65/1 528/62/1
f 529/10/1 530/11/1 531/12/1 532/13/1
f 533/11/1 534/14/1 535/15/1 536/12/1
f 537/10/1 538/11/1 539/12/1 540/13/1
f 541/11/1 542/14/1 543/15/1 544/12/1
f 545/10/1 546/11/1 547/12/1 548/13/1
f 549/11/1 550/14/1 551/15/1 552/12/1
f 553/10/1 554/11/1 555/12/1 556/13/1
f 557/11/1 558/14/1 559/15/1 560/12/1
f 561/10/1 562/11/1 563/12/1 564/13/1
f 565/11/1 566/14/1 567/15/1 568/12/1
f 569/16/1 570/17/1 571/11/1 572/10/1
f 573/17/1 574/18/1 575/14/1 576/11/1
f 577/16/1 578/17/1 579/11/1 580/10/1
f 581/17/1 582/18/1 583/14/1 584/11/1
f 585/16/1 586/17/1 587/11/1 588/10/1
f 589/17/1 590/18/1 591/14/1 592/11/1
f 593/16/1 594/17/1 595/11/1 596/10/1
f 597/17/1 598/18/1 599/14/1 600/11/1
f 601/16/1 602/17/1 603/11/1 604/10/1
f 605/17/1 606/18/1 607/14/1 608/11/1
f 609/73/1 610/74/1 611/75/1 612/76/1
f 613/74/1 614/77/1 615/78/1 616/75/1
f 617/25/1 618/26/1 619/27/1 620/28/1
f 621/26/1 622/29/1 623/30/1 624/27/1
f 625/25/1 626/26/1 627/27/1 628/28/1
f 629/26/1 630/29/1 631/30/1 632/27/1
f 633/25/1 634/26/1 635/27/1 636/28/1
f 637/26/1 638/29/1 639/30/1 640/27/1
f 641/79/1 642/80/1 643/81/1 644/82/1
f 645/80/1 646/83/1 647/84/1 648/81/1
f 649/25/1 650/26/1 651/27/1 652/28/1
f 653/26/1 654/29/1 655/30/1 656/27/1
f 657/79/1 658/80/1 659/81/1 660/82/1
f 661/80/1 662/83/1 663/84/1 664/81/1
f 665/25/1 666/26/1 667/27/1 668/28/1
f 669/26/1 670/29/1 671/30/1 672/27/1
f 673/79/1 674/80/1 675/81/1 676/82/1
f 677/80/1 678/83/1 679/84/1 680/81/1
f 681/25/1 682/26/1 683/27/1 684/28/1
f 685/26/1 686/29/1 687/30/1 688/27/1
f 689/25/1 690/26/1 691/27/1 692/28/1
f 693/26/1 694/29/1 695/30/1 696/27/1
f 697/25/1 698/26/1 699/27/1 700/28/1
f 701/26/1 702/29/1 703/30/1 704/27/1
f 705/85/1 706/86/1 707/87/1 708/88/1
f 709/86/1 710/89/1 711/90/1 712/87/1
f 713/91/1 714/92/1 715/74/1 716/73/1
f 717/92/1 718/93/1 719/77/1 720/74/1
f 721/46/1 722/47/1 723/26/1 724/25/1
f 725/47/1 726/48/1 727/29/1 728/26/1
f 729/46/1 730/47/1 731/26/1 732/25/1
f 733/47/1 734/48/1 735/29/1 736/26/1
f 737/46/1 738/47/1 739/26/1 740/25/1
f 741/47/1 742/48/1 743/29/1 744/26/1
f 745/94/1 746/95/1 747/80/1 748/79/1
f 749/95/1 750/96/1 751/83/1 752/80/1
f 753/46/1 754/47/1 755/26/1 756/25/1
f 757/47/1 758/48/1 759/29/1 760/26/1
f 761/94/1 762/95/1 763/80/1 764/79/1
f 765/95/1 766/96/1 767/83/1 768/80/1
f 769/46/1 770/47/1 771/26/1 772/25/1
f 773/47/1 774/48/1 775/29/1 776/26/1
f 777/94/1 778/95/1 779/80/1 780/79/1
f 781/95/1 782/96/1 783/83/1 784/80/1
f 785/46/1 786/47/1 787/26/1 788/25/1
f 789/47/1 790/48/1 791/29/1 792/26/1
f 793/46/1 794/47/1 795/26/1 796/25/1
f 797/47/1 798/48/1 799/29/1 800/26/1
f 801/46/1 802/47/1 803/26/1 804/25/1
f 805/47/1 806/48/1 807/29/1 808/26/1
f 809/97/1 810/98/1 811/86/1 812/85/1
f 813/98/1 814/99/1 815/89/1 816/86/1

