# Tiled2Unity generated file. Do not modify by hand.
# Wavefront file for 'Town_mesh_0005.obj'

# Vertices (Count = 288)
v -448 -192 0
v -480 -192 0
v -480 -160 0
v -448 -160 0
v -480 -192 0
v -512 -192 0
v -512 -160 0
v -480 -160 0
v -576 -192 0
v -608 -192 0
v -608 -160 0
v -576 -160 0
v -608 -192 0
v -640 -192 0
v -640 -160 0
v -608 -160 0
v -448 -224 0
v -480 -224 0
v -480 -192 0
v -448 -192 0
v -480 -224 0
v -512 -224 0
v -512 -192 0
v -480 -192 0
v -576 -224 0
v -608 -224 0
v -608 -192 0
v -576 -192 0
v -608 -224 0
v -640 -224 0
v -640 -192 0
v -608 -192 0
v -480 -288 0
v -512 -288 0
v -512 -256 0
v -480 -256 0
v -512 -288 0
v -544 -288 0
v -544 -256 0
v -512 -256 0
v -544 -288 0
v -576 -288 0
v -576 -256 0
v -544 -256 0
v -576 -288 0
v -608 -288 0
v -608 -256 0
v -576 -256 0
v -480 -320 0
v -512 -320 0
v -512 -288 0
v -480 -288 0
v -512 -320 0
v -544 -320 0
v -544 -288 0
v -512 -288 0
v -544 -320 0
v -576 -320 0
v -576 -288 0
v -544 -288 0
v -576 -320 0
v -608 -320 0
v -608 -288 0
v -576 -288 0
v -480 -352 0
v -512 -352 0
v -512 -320 0
v -480 -320 0
v -512 -352 0
v -544 -352 0
v -544 -320 0
v -512 -320 0
v -544 -352 0
v -576 -352 0
v -576 -320 0
v -544 -320 0
v -576 -352 0
v -608 -352 0
v -608 -320 0
v -576 -320 0
v -480 -384 0
v -512 -384 0
v -512 -352 0
v -480 -352 0
v -512 -384 0
v -544 -384 0
v -544 -352 0
v -512 -352 0
v -544 -384 0
v -576 -384 0
v -576 -352 0
v -544 -352 0
v -576 -384 0
v -608 -384 0
v -608 -352 0
v -576 -352 0
v -480 -416 0
v -512 -416 0
v -512 -384 0
v -480 -384 0
v -512 -416 0
v -544 -416 0
v -544 -384 0
v -512 -384 0
v -544 -416 0
v -576 -416 0
v -576 -384 0
v -544 -384 0
v -576 -416 0
v -608 -416 0
v -608 -384 0
v -576 -384 0
v -480 -448 0
v -512 -448 0
v -512 -416 0
v -480 -416 0
v -512 -448 0
v -544 -448 0
v -544 -416 0
v -512 -416 0
v -544 -448 0
v -576 -448 0
v -576 -416 0
v -544 -416 0
v -576 -448 0
v -608 -448 0
v -608 -416 0
v -576 -416 0
v -480 -480 0
v -512 -480 0
v -512 -448 0
v -480 -448 0
v -512 -480 0
v -544 -480 0
v -544 -448 0
v -512 -448 0
v -544 -480 0
v -576 -480 0
v -576 -448 0
v -544 -448 0
v -576 -480 0
v -608 -480 0
v -608 -448 0
v -576 -448 0
v -480 -512 0
v -512 -512 0
v -512 -480 0
v -480 -480 0
v -512 -512 0
v -544 -512 0
v -544 -480 0
v -512 -480 0
v -544 -512 0
v -576 -512 0
v -576 -480 0
v -544 -480 0
v -576 -512 0
v -608 -512 0
v -608 -480 0
v -576 -480 0
v -480 -544 0
v -512 -544 0
v -512 -512 0
v -480 -512 0
v -512 -544 0
v -544 -544 0
v -544 -512 0
v -512 -512 0
v -544 -544 0
v -576 -544 0
v -576 -512 0
v -544 -512 0
v -576 -544 0
v -608 -544 0
v -608 -512 0
v -576 -512 0
v -480 -576 0
v -512 -576 0
v -512 -544 0
v -480 -544 0
v -512 -576 0
v -544 -576 0
v -544 -544 0
v -512 -544 0
v -544 -576 0
v -576 -576 0
v -576 -544 0
v -544 -544 0
v -576 -576 0
v -608 -576 0
v -608 -544 0
v -576 -544 0
v -480 -608 0
v -512 -608 0
v -512 -576 0
v -480 -576 0
v -512 -608 0
v -544 -608 0
v -544 -576 0
v -512 -576 0
v -544 -608 0
v -576 -608 0
v -576 -576 0
v -544 -576 0
v -576 -608 0
v -608 -608 0
v -608 -576 0
v -576 -576 0
v -480 -640 0
v -512 -640 0
v -512 -608 0
v -480 -608 0
v -512 -640 0
v -544 -640 0
v -544 -608 0
v -512 -608 0
v -544 -640 0
v -576 -640 0
v -576 -608 0
v -544 -608 0
v -576 -640 0
v -608 -640 0
v -608 -608 0
v -576 -608 0
v -544 -704 0
v -576 -704 0
v -576 -672 0
v -544 -672 0
v -576 -704 0
v -608 -704 0
v -608 -672 0
v -576 -672 0
v -544 -736 0
v -576 -736 0
v -576 -704 0
v -544 -704 0
v -576 -736 0
v -608 -736 0
v -608 -704 0
v -576 -704 0
v -416 -800 0
v -448 -800 0
v -448 -768 0
v -416 -768 0
v -448 -800 0
v -480 -800 0
v -480 -768 0
v -448 -768 0
v -352 -832 0
v -384 -832 0
v -384 -800 0
v -352 -800 0
v -384 -832 0
v -416 -832 0
v -416 -800 0
v -384 -800 0
v -416 -832 0
v -448 -832 0
v -448 -800 0
v -416 -800 0
v -448 -832 0
v -480 -832 0
v -480 -800 0
v -448 -800 0
v -864 -832 0
v -896 -832 0
v -896 -800 0
v -864 -800 0
v -896 -832 0
v -928 -832 0
v -928 -800 0
v -896 -800 0
v -352 -864 0
v -384 -864 0
v -384 -832 0
v -352 -832 0
v -384 -864 0
v -416 -864 0
v -416 -832 0
v -384 -832 0
v -864 -864 0
v -896 -864 0
v -896 -832 0
v -864 -832 0
v -896 -864 0
v -928 -864 0
v -928 -832 0
v -896 -832 0

# Texture cooridinates (Count = 63)
vt 0.9454545 0.09090906
vt 0.9636363 0.09090906
vt 0.9636363 0.1363636
vt 0.9454545 0.1363636
vt 0.9818182 0.09090906
vt 0.9818182 0.1363636
vt 0.9454545 0.04545456
vt 0.9636363 0.04545456
vt 0.9818182 0.04545456
vt 0.4545455 0.2272727
vt 0.4727273 0.2272727
vt 0.4727273 0.2727273
vt 0.4545455 0.2727273
vt 0.4909091 0.2272727
vt 0.4909091 0.2727273
vt 0.4545455 0.1818182
vt 0.4727273 0.1818182
vt 0.4909091 0.1818182
vt 0.5636364 0.5
vt 0.5818182 0.5
vt 0.5818182 0.5454545
vt 0.5636364 0.5454545
vt 0.6 0.5
vt 0.6 0.5454545
vt 0.5636364 0.4545454
vt 0.5818182 0.4545454
vt 0.6 0.4545454
vt 0.2363636 0.2272727
vt 0.2545455 0.2272727
vt 0.2545455 0.2727273
vt 0.2363636 0.2727273
vt 0.2727273 0.2272727
vt 0.2727273 0.2727273
vt 0.2363636 0.1818182
vt 0.2545455 0.1818182
vt 0.2727273 0.1818182
vt 0.2909091 0.2272727
vt 0.3090909 0.2272727
vt 0.3090909 0.2727273
vt 0.2909091 0.2727273
vt 0.3272727 0.2272727
vt 0.3272727 0.2727273
vt 0.4 0.2272727
vt 0.4181818 0.2272727
vt 0.4181818 0.2727273
vt 0.4 0.2727273
vt 0.4363636 0.2272727
vt 0.4363636 0.2727273
vt 0.2909091 0.1818182
vt 0.3090909 0.1818182
vt 0.3272727 0.1818182
vt 0.3454545 0.2272727
vt 0.3636364 0.2272727
vt 0.3636364 0.2727273
vt 0.3454545 0.2727273
vt 0.3818182 0.2272727
vt 0.3818182 0.2727273
vt 0.4 0.1818182
vt 0.4181818 0.1818182
vt 0.4363636 0.1818182
vt 0.3454545 0.1818182
vt 0.3636364 0.1818182
vt 0.3818182 0.1818182

# Normal
vn 0 0 -1

# Mesh description
g Town_mesh_0005

# Faces
f 1/1/1 2/2/1 3/3/1 4/4/1
f 5/2/1 6/5/1 7/6/1 8/3/1
f 9/1/1 10/2/1 11/3/1 12/4/1
f 13/2/1 14/5/1 15/6/1 16/3/1
f 17/7/1 18/8/1 19/2/1 20/1/1
f 21/8/1 22/9/1 23/5/1 24/2/1
f 25/7/1 26/8/1 27/2/1 28/1/1
f 29/8/1 30/9/1 31/5/1 32/2/1
f 33/10/1 34/11/1 35/12/1 36/13/1
f 37/11/1 38/14/1 39/15/1 40/12/1
f 41/10/1 42/11/1 43/12/1 44/13/1
f 45/11/1 46/14/1 47/15/1 48/12/1
f 49/16/1 50/17/1 51/11/1 52/10/1
f 53/17/1 54/18/1 55/14/1 56/11/1
f 57/16/1 58/17/1 59/11/1 60/10/1
f 61/17/1 62/18/1 63/14/1 64/11/1
f 65/19/1 66/20/1 67/21/1 68/22/1
f 69/20/1 70/23/1 71/24/1 72/21/1
f 73/19/1 74/20/1 75/21/1 76/22/1
f 77/20/1 78/23/1 79/24/1 80/21/1
f 81/25/1 82/26/1 83/20/1 84/19/1
f 85/26/1 86/27/1 87/23/1 88/20/1
f 89/25/1 90/26/1 91/20/1 92/19/1
f 93/26/1 94/27/1 95/23/1 96/20/1
f 97/19/1 98/20/1 99/21/1 100/22/1
f 101/20/1 102/23/1 103/24/1 104/21/1
f 105/19/1 106/20/1 107/21/1 108/22/1
f 109/20/1 110/23/1 111/24/1 112/21/1
f 113/25/1 114/26/1 115/20/1 116/19/1
f 117/26/1 118/27/1 119/23/1 120/20/1
f 121/25/1 122/26/1 123/20/1 124/19/1
f 125/26/1 126/27/1 127/23/1 128/20/1
f 129/19/1 130/20/1 131/21/1 132/22/1
f 133/20/1 134/23/1 135/24/1 136/21/1
f 137/19/1 138/20/1 139/21/1 140/22/1
f 141/20/1 142/23/1 143/24/1 144/21/1
f 145/25/1 146/26/1 147/20/1 148/19/1
f 149/26/1 150/27/1 151/23/1 152/20/1
f 153/25/1 154/26/1 155/20/1 156/19/1
f 157/26/1 158/27/1 159/23/1 160/20/1
f 161/19/1 162/20/1 163/21/1 164/22/1
f 165/20/1 166/23/1 167/24/1 168/21/1
f 169/19/1 170/20/1 171/21/1 172/22/1
f 173/20/1 174/23/1 175/24/1 176/21/1
f 177/25/1 178/26/1 179/20/1 180/19/1
f 181/26/1 182/27/1 183/23/1 184/20/1
f 185/25/1 186/26/1 187/20/1 188/19/1
f 189/26/1 190/27/1 191/23/1 192/20/1
f 193/19/1 194/20/1 195/21/1 196/22/1
f 197/20/1 198/23/1 199/24/1 200/21/1
f 201/19/1 202/20/1 203/21/1 204/22/1
f 205/20/1 206/23/1 207/24/1 208/21/1
f 209/25/1 210/26/1 211/20/1 212/19/1
f 213/26/1 214/27/1 215/23/1 216/20/1
f 217/25/1 218/26/1 219/20/1 220/19/1
f 221/26/1 222/27/1 223/23/1 224/20/1
f 225/28/1 226/29/1 227/30/1 228/31/1
f 229/29/1 230/32/1 231/33/1 232/30/1
f 233/34/1 234/35/1 235/29/1 236/28/1
f 237/35/1 238/36/1 239/32/1 240/29/1
f 241/37/1 242/38/1 243/39/1 244/40/1
f 245/38/1 246/41/1 247/42/1 248/39/1
f 249/43/1 250/44/1 251/45/1 252/46/1
f 253/44/1 254/47/1 255/48/1 256/45/1
f 257/49/1 258/50/1 259/38/1 260/37/1
f 261/50/1 262/51/1 263/41/1 264/38/1
f 265/52/1 266/53/1 267/54/1 268/55/1
f 269/53/1 270/56/1 271/57/1 272/54/1
f 273/58/1 274/59/1 275/44/1 276/43/1
f 277/59/1 278/60/1 279/47/1 280/44/1
f 281/61/1 282/62/1 283/53/1 284/52/1
f 285/62/1 286/63/1 287/56/1 288/53/1

