# Tiled2Unity generated file. Do not modify by hand.
# Wavefront file for 'Town_mesh_0003.obj'

# Vertices (Count = 168)
v -512 -256 0
v -544 -256 0
v -544 -224 0
v -512 -224 0
v -544 -256 0
v -576 -256 0
v -576 -224 0
v -544 -224 0
v -448 -288 0
v -480 -288 0
v -480 -256 0
v -448 -256 0
v -480 -288 0
v -512 -288 0
v -512 -256 0
v -480 -256 0
v -576 -288 0
v -608 -288 0
v -608 -256 0
v -576 -256 0
v -608 -288 0
v -640 -288 0
v -640 -256 0
v -608 -256 0
v -448 -320 0
v -480 -320 0
v -480 -288 0
v -448 -288 0
v -480 -320 0
v -512 -320 0
v -512 -288 0
v -480 -288 0
v -576 -320 0
v -608 -320 0
v -608 -288 0
v -576 -288 0
v -608 -320 0
v -640 -320 0
v -640 -288 0
v -608 -288 0
v -192 -800 0
v -224 -800 0
v -224 -768 0
v -192 -768 0
v -224 -800 0
v -256 -800 0
v -256 -768 0
v -224 -768 0
v -256 -800 0
v -288 -800 0
v -288 -768 0
v -256 -768 0
v -288 -800 0
v -320 -800 0
v -320 -768 0
v -288 -768 0
v -320 -800 0
v -352 -800 0
v -352 -768 0
v -320 -768 0
v -352 -800 0
v -384 -800 0
v -384 -768 0
v -352 -768 0
v -704 -800 0
v -736 -800 0
v -736 -768 0
v -704 -768 0
v -736 -800 0
v -768 -800 0
v -768 -768 0
v -736 -768 0
v -768 -800 0
v -800 -800 0
v -800 -768 0
v -768 -768 0
v -800 -800 0
v -832 -800 0
v -832 -768 0
v -800 -768 0
v -832 -800 0
v -864 -800 0
v -864 -768 0
v -832 -768 0
v -864 -800 0
v -896 -800 0
v -896 -768 0
v -864 -768 0
v -448 -896 0
v -480 -896 0
v -480 -864 0
v -448 -864 0
v -480 -896 0
v -512 -896 0
v -512 -864 0
v -480 -864 0
v -576 -896 0
v -608 -896 0
v -608 -864 0
v -576 -864 0
v -608 -896 0
v -640 -896 0
v -640 -864 0
v -608 -864 0
v -192 -928 0
v -224 -928 0
v -224 -896 0
v -192 -896 0
v -224 -928 0
v -256 -928 0
v -256 -896 0
v -224 -896 0
v -256 -928 0
v -288 -928 0
v -288 -896 0
v -256 -896 0
v -288 -928 0
v -320 -928 0
v -320 -896 0
v -288 -896 0
v -320 -928 0
v -352 -928 0
v -352 -896 0
v -320 -896 0
v -352 -928 0
v -384 -928 0
v -384 -896 0
v -352 -896 0
v -448 -928 0
v -480 -928 0
v -480 -896 0
v -448 -896 0
v -480 -928 0
v -512 -928 0
v -512 -896 0
v -480 -896 0
v -576 -928 0
v -608 -928 0
v -608 -896 0
v -576 -896 0
v -608 -928 0
v -640 -928 0
v -640 -896 0
v -608 -896 0
v -704 -928 0
v -736 -928 0
v -736 -896 0
v -704 -896 0
v -736 -928 0
v -768 -928 0
v -768 -896 0
v -736 -896 0
v -768 -928 0
v -800 -928 0
v -800 -896 0
v -768 -896 0
v -800 -928 0
v -832 -928 0
v -832 -896 0
v -800 -896 0
v -832 -928 0
v -864 -928 0
v -864 -896 0
v -832 -896 0
v -864 -928 0
v -896 -928 0
v -896 -896 0
v -864 -896 0

# Texture cooridinates (Count = 30)
vt 0.8909091 0.7727273
vt 0.9090909 0.7727273
vt 0.9090909 0.8181818
vt 0.8909091 0.8181818
vt 0.9272727 0.7727273
vt 0.9272727 0.8181818
vt 0.8363636 0.7727273
vt 0.8545455 0.7727273
vt 0.8545455 0.8181818
vt 0.8363636 0.8181818
vt 0.8727273 0.7727273
vt 0.8727273 0.8181818
vt 0.8363636 0.7272727
vt 0.8545455 0.7272727
vt 0.8727273 0.7272727
vt 0.4 0.04545456
vt 0.4181818 0.04545456
vt 0.4181818 0.09090906
vt 0.4 0.09090906
vt 0.4363636 0.04545456
vt 0.4363636 0.09090906
vt 0.9454545 0.6363636
vt 0.9636363 0.6363636
vt 0.9636363 0.6818182
vt 0.9454545 0.6818182
vt 0.9818182 0.6363636
vt 0.9818182 0.6818182
vt 0.9454545 0.5909091
vt 0.9636363 0.5909091
vt 0.9818182 0.5909091

# Normal
vn 0 0 -1

# Mesh description
g Town_mesh_0003

# Faces
f 1/1/1 2/2/1 3/3/1 4/4/1
f 5/2/1 6/5/1 7/6/1 8/3/1
f 9/7/1 10/8/1 11/9/1 12/10/1
f 13/8/1 14/11/1 15/12/1 16/9/1
f 17/7/1 18/8/1 19/9/1 20/10/1
f 21/8/1 22/11/1 23/12/1 24/9/1
f 25/13/1 26/14/1 27/8/1 28/7/1
f 29/14/1 30/15/1 31/11/1 32/8/1
f 33/13/1 34/14/1 35/8/1 36/7/1
f 37/14/1 38/15/1 39/11/1 40/8/1
f 41/16/1 42/17/1 43/18/1 44/19/1
f 45/17/1 46/20/1 47/21/1 48/18/1
f 49/16/1 50/17/1 51/18/1 52/19/1
f 53/17/1 54/20/1 55/21/1 56/18/1
f 57/16/1 58/17/1 59/18/1 60/19/1
f 61/17/1 62/20/1 63/21/1 64/18/1
f 65/16/1 66/17/1 67/18/1 68/19/1
f 69/17/1 70/20/1 71/21/1 72/18/1
f 73/16/1 74/17/1 75/18/1 76/19/1
f 77/17/1 78/20/1 79/21/1 80/18/1
f 81/16/1 82/17/1 83/18/1 84/19/1
f 85/17/1 86/20/1 87/21/1 88/18/1
f 89/22/1 90/23/1 91/24/1 92/25/1
f 93/23/1 94/26/1 95/27/1 96/24/1
f 97/22/1 98/23/1 99/24/1 100/25/1
f 101/23/1 102/26/1 103/27/1 104/24/1
f 105/16/1 106/17/1 107/18/1 108/19/1
f 109/17/1 110/20/1 111/21/1 112/18/1
f 113/16/1 114/17/1 115/18/1 116/19/1
f 117/17/1 118/20/1 119/21/1 120/18/1
f 121/16/1 122/17/1 123/18/1 124/19/1
f 125/17/1 126/20/1 127/21/1 128/18/1
f 129/28/1 130/29/1 131/23/1 132/22/1
f 133/29/1 134/30/1 135/26/1 136/23/1
f 137/28/1 138/29/1 139/23/1 140/22/1
f 141/29/1 142/30/1 143/26/1 144/23/1
f 145/16/1 146/17/1 147/18/1 148/19/1
f 149/17/1 150/20/1 151/21/1 152/18/1
f 153/16/1 154/17/1 155/18/1 156/19/1
f 157/17/1 158/20/1 159/21/1 160/18/1
f 161/16/1 162/17/1 163/18/1 164/19/1
f 165/17/1 166/20/1 167/21/1 168/18/1

